HIERARCHY
ROOT Hips
{
	OFFSET 0.000000 0.000000 0.000000
	CHANNELS 6 Xposition Yposition Zposition Zrotation Yrotation Xrotation 
	JOINT LHipJoint
	{
		OFFSET 0.000000 0.000000 0.000000
		CHANNELS 3 Zrotation Yrotation Xrotation
		JOINT LeftUpLeg
		{
			OFFSET 1.363060 -1.794630 0.839290
			CHANNELS 3 Zrotation Yrotation Xrotation
			JOINT LeftLeg
			{
				OFFSET 2.448110 -6.726130 0.000000
				CHANNELS 3 Zrotation Yrotation Xrotation
				JOINT LeftFoot
				{
					OFFSET 2.562200 -7.039590 0.000000
					CHANNELS 3 Zrotation Yrotation Xrotation
					JOINT LeftToeBase
					{
						OFFSET 0.157640 -0.433110 2.322550
						CHANNELS 3 Zrotation Yrotation Xrotation
						End Site
						{
							OFFSET 0.000000 0.000000 0.000000
						}
					}
				}
			}
		}
	}
	JOINT RHipJoint
	{
		OFFSET 0.000000 0.000000 0.000000
		CHANNELS 3 Zrotation Yrotation Xrotation
		JOINT RightUpLeg
		{
			OFFSET -1.305520 -1.794630 0.839290
			CHANNELS 3 Zrotation Yrotation Xrotation
			JOINT RightLeg
			{
				OFFSET -2.542530 -6.985550 0.000000
				CHANNELS 3 Zrotation Yrotation Xrotation
				JOINT RightFoot
				{
					OFFSET -2.568260 -7.056230 0.000000
					CHANNELS 3 Zrotation Yrotation Xrotation
					JOINT RightToeBase
					{
						OFFSET -0.164730 -0.452590 2.363150
						CHANNELS 3 Zrotation Yrotation Xrotation
						End Site
						{
							OFFSET 0.000000 0.000000 0.000000
						}
					}
				}
			}
		}
	}
	JOINT LowerBack
	{
		OFFSET 0.000000 0.000000 0.000000
		CHANNELS 3 Zrotation Yrotation Xrotation
		JOINT Spine
		{
			OFFSET 0.028270 2.035590 -0.193380
			CHANNELS 3 Zrotation Yrotation Xrotation
			JOINT Spine1
			{
				OFFSET 0.056720 2.048850 -0.042750
				CHANNELS 3 Zrotation Yrotation Xrotation
				JOINT Neck
				{
					OFFSET 0.000000 0.000000 0.000000
					CHANNELS 3 Zrotation Yrotation Xrotation
					JOINT Neck1
					{
						OFFSET -0.054170 1.746240 0.172020
						CHANNELS 3 Zrotation Yrotation Xrotation
						JOINT Head
						{
							OFFSET 0.104070 1.761360 -0.123970
							CHANNELS 3 Zrotation Yrotation Xrotation
							End Site
							{
								OFFSET 0.000000 0.000000 0.000000
							}
						}
					}
				}
				JOINT LeftShoulder
				{
					OFFSET 0.000000 0.000000 0.000000
					CHANNELS 3 Zrotation Yrotation Xrotation
					JOINT LeftArm
					{
						OFFSET 3.362410 1.200890 -0.311210
						CHANNELS 3 Zrotation Yrotation Xrotation
						JOINT LeftForeArm
						{
							OFFSET 4.983000 -0.000000 -0.000000
							CHANNELS 3 Zrotation Yrotation Xrotation
							JOINT LeftHand
							{
								OFFSET 3.483560 -0.000000 -0.000000
								CHANNELS 3 Zrotation Yrotation Xrotation
								JOINT LeftFingerBase
								{
									OFFSET 0.000000 0.000000 0.000000
									CHANNELS 3 Zrotation Yrotation Xrotation
									JOINT LeftHandIndex1
									{
										OFFSET 0.715260 -0.000000 -0.000000
										CHANNELS 3 Zrotation Yrotation Xrotation
										End Site
										{
											OFFSET 0.000000 0.000000 0.000000
										}
									}
								}
								JOINT LThumb
								{
									OFFSET 0.000000 0.000000 0.000000
									CHANNELS 3 Zrotation Yrotation Xrotation
									End Site
									{
										OFFSET 0.000000 0.000000 0.000000
									}
								}
							}
						}
					}
				}
				JOINT RightShoulder
				{
					OFFSET 0.000000 0.000000 0.000000
					CHANNELS 3 Zrotation Yrotation Xrotation
					JOINT RightArm
					{
						OFFSET -3.136600 1.374050 -0.404650
						CHANNELS 3 Zrotation Yrotation Xrotation
						JOINT RightForeArm
						{
							OFFSET -5.241900 -0.000000 -0.000000
							CHANNELS 3 Zrotation Yrotation Xrotation
							JOINT RightHand
							{
								OFFSET -3.444170 -0.000000 -0.000000
								CHANNELS 3 Zrotation Yrotation Xrotation
								JOINT RightFingerBase
								{
									OFFSET 0.000000 0.000000 0.000000
									CHANNELS 3 Zrotation Yrotation Xrotation
									JOINT RightHandIndex1
									{
										OFFSET -0.622530 -0.000000 -0.000000
										CHANNELS 3 Zrotation Yrotation Xrotation
										End Site
										{
											OFFSET 0.000000 0.000000 0.000000
										}
									}
								}
								JOINT RThumb
								{
									OFFSET 0.000000 0.000000 0.000000
									CHANNELS 3 Zrotation Yrotation Xrotation
									End Site
									{
										OFFSET 0.000000 0.000000 0.000000
									}
								}
							}
						}
					}
				}
			}
		}
	}
}
MOTION
Frames: 12
Frame Time: 0.008333
-0.202571 16.164335 -2.245344 -11.490120 -10.289616 7.103604 3.100723 3.970426 2.584127 -1.821635 -12.327837 -34.918641 9.425768 17.615640 58.592715 1.832955 -1.527127 -20.887216 1.677000 -8.158100 -23.195400 -5.753648 -4.440348 3.307799 34.512455 19.540385 -29.578251 -7.472496 -14.177420 50.132338 -2.181185 9.156507 -18.484443 -0.922700 6.120000 -17.132900 -4.376140 -0.763008 17.540936 -11.025518 -0.735006 21.946810 -0.263452 -1.033661 -2.108593 -15.112887 -11.775915 -8.540572 20.643846 -12.377136 -3.013320 10.674800 -6.124100 4.884500 -10.336210 -12.291830 4.366198 -85.540025 -42.141618 40.499499 156.782452 -31.591915 -111.737995 0.085676 5.638830 13.589495 -29.145294 42.456474 -17.662200 -7.125000 0.000000 0.000000 -64.555800 55.326000 -23.167100 10.038694 12.978919 3.990943 73.134354 37.409652 44.821500 -154.440027 30.540767 -112.713093 1.958345 -1.399461 26.168052 28.576250 6.144601 3.313200 7.125000 0.000000 0.000000 35.682900 -21.587600 25.410200 
-0.217077 16.144415 -2.243506 -11.489473 -10.262789 6.790086 3.104405 3.979588 2.594704 -1.803967 -12.377826 -34.697707 9.524643 17.650518 58.884545 1.878598 -1.670428 -21.053327 1.629300 -8.047000 -22.856900 -5.746044 -4.458884 3.297110 34.636864 19.087726 -29.479915 -7.551440 -14.221146 50.380527 -2.248301 9.546240 -18.728299 -0.918200 6.105300 -17.090200 -4.637113 -0.624881 17.570089 -10.944440 -0.598213 22.155113 -0.144423 -0.973508 -1.897981 -15.542639 -11.933404 -8.506437 20.634907 -12.560003 -3.205745 10.732200 -6.227100 4.882300 -10.286350 -12.323813 4.445114 -85.482769 -42.691534 40.681692 156.711922 -31.598381 -111.702128 0.121087 5.645055 13.729439 -29.104238 42.595072 -17.694900 -7.125000 0.000000 0.000000 -64.681600 55.398000 -23.374400 9.984360 12.965024 3.973689 72.902426 37.521405 44.432622 -154.451124 30.498127 -112.705185 2.005127 -1.400816 25.867804 28.813059 6.285108 3.411500 7.125000 0.000000 0.000000 35.739700 -21.427900 25.651300 
-0.228723 16.128479 -2.244119 -11.351139 -10.172109 6.552912 3.098510 3.984539 2.603904 -1.919729 -12.521902 -34.566680 9.594779 17.671780 59.103193 1.900166 -1.685993 -21.202049 1.644500 -8.082600 -22.965100 -5.737123 -4.475454 3.283884 34.563404 18.646558 -29.474169 -7.608503 -14.253860 50.552831 -2.294697 9.914870 -18.841160 -0.949300 6.204900 -17.380000 -4.953260 -0.510335 17.616083 -10.953952 -0.499315 22.268199 0.001467 -0.936151 -1.789540 -15.687421 -12.029542 -8.313143 20.488041 -12.674644 -3.437730 10.689200 -6.303000 4.786400 -10.236146 -12.332044 4.501676 -85.299054 -43.158487 40.625795 156.650666 -31.570708 -111.684028 0.065004 5.668742 13.797865 -29.680534 42.586253 -18.047000 -7.125000 0.000000 0.000000 -65.051000 55.280700 -23.402300 9.949818 12.951794 3.963255 72.909780 37.558921 44.091274 -154.387726 30.563292 -112.657936 2.035840 -1.388804 25.738524 28.942687 6.448743 3.501000 7.125000 0.000000 0.000000 35.750500 -21.276200 25.830800 
-0.245578 16.117344 -2.242995 -11.655048 -10.025788 6.468155 3.125463 3.990136 2.603452 -1.529950 -12.529757 -34.565849 9.646201 17.710937 59.254003 1.897258 -1.660595 -21.222711 1.714500 -8.244100 -23.458100 -5.734765 -4.488345 3.282114 35.010922 18.313291 -29.369177 -7.627573 -14.253218 50.609173 -2.298834 10.041408 -18.793888 -0.961900 6.244700 -17.496100 -4.975871 -0.405358 17.610397 -10.696975 -0.394839 22.326812 0.110924 -0.867836 -1.800518 -15.779618 -12.078325 -8.035549 20.293483 -12.743628 -3.573971 10.617900 -6.361000 4.690800 -10.231382 -12.326561 4.513550 -85.141196 -43.366905 40.435441 156.652829 -31.514982 -111.696957 0.002946 5.682645 13.794096 -30.150957 42.452596 -18.282700 -7.125000 0.000000 0.000000 -65.207900 55.122500 -23.219400 9.927843 12.939019 3.946671 72.993423 37.460412 43.904680 -154.303320 30.677528 -112.595009 2.075828 -1.374102 25.753462 29.113560 6.741646 3.655500 7.125000 0.000000 0.000000 35.743700 -21.011800 26.113400 
-0.270606 16.109274 -2.239522 -12.258380 -9.900222 6.370097 3.173120 3.998666 2.599102 -0.805986 -12.368699 -34.508415 9.682648 17.748973 59.328908 1.922143 -1.813768 -21.214676 1.779900 -8.391700 -23.910300 -5.734937 -4.502806 3.285973 35.841767 18.093034 -29.014431 -7.617170 -14.214349 50.564979 -2.265144 9.983985 -18.576522 -0.953200 6.217300 -17.416400 -4.886962 -0.245481 17.603510 -10.261318 -0.213229 22.527671 0.218701 -0.756411 -1.672075 -15.680247 -12.157574 -8.105420 20.108791 -12.853660 -3.665119 10.509400 -6.413400 4.666700 -10.219664 -12.338071 4.551068 -84.782372 -43.870634 39.906257 156.614951 -31.395136 -111.721844 -0.189382 5.706327 13.831688 -31.590027 41.884714 -18.943200 -7.125000 0.000000 0.000000 -65.519100 54.566200 -22.402800 9.875494 12.953791 3.949457 73.107280 37.555961 44.185609 -154.366711 30.631574 -112.603630 2.061991 -1.450753 25.943934 29.611996 6.366766 3.580300 7.125000 0.000000 0.000000 36.061100 -21.196000 26.286400 
-0.290730 16.109785 -2.240441 -12.586175 -9.720190 6.291582 3.203033 4.004634 2.599935 -0.381508 -12.335336 -34.471237 9.684108 17.754102 59.295747 1.949887 -2.045221 -21.127102 1.732900 -8.286000 -23.586200 -5.722945 -4.513363 3.285256 36.318462 17.837969 -28.804973 -7.579527 -14.164141 50.416618 -2.242833 9.978030 -18.405391 -0.945400 6.192700 -17.344500 -4.987122 -0.098690 17.690739 -9.957729 -0.063978 22.764182 0.348031 -0.683782 -1.475472 -15.264527 -12.250751 -8.553708 19.877325 -12.992593 -3.694378 10.321800 -6.453900 4.698400 -10.141186 -12.313167 4.599819 -84.350717 -44.644943 39.194582 156.528994 -31.256119 -111.744377 -0.460271 5.721675 14.175725 -33.742319 40.776619 -19.809700 -7.125000 0.000000 0.000000 -65.693900 53.612800 -20.714100 9.692909 12.898601 4.038947 73.752326 38.266087 42.855671 -153.185564 31.774934 -111.958598 2.689892 -0.814039 27.475146 28.138902 13.747084 6.333900 7.125000 0.000000 0.000000 33.542300 -15.617300 28.823300 
-0.303704 16.122758 -2.241156 -12.511640 -9.467473 6.253640 3.194307 4.002609 2.601948 -0.389551 -12.457982 -34.418966 9.638459 17.714008 59.115797 1.993087 -2.420030 -20.970213 1.555600 -7.871700 -22.325100 -5.706557 -4.520378 3.267903 36.294965 17.516172 -28.773081 -7.523521 -14.112047 50.195318 -2.237154 10.029376 -18.319321 -0.928200 6.137400 -17.183700 -5.015077 0.073122 17.787119 -9.939016 0.141439 22.823351 0.372669 -0.581981 -1.464665 -14.934250 -12.368519 -8.450972 19.778221 -13.162763 -3.793215 10.216400 -6.540400 4.648300 -10.124143 -12.296885 4.616115 -83.928673 -44.907882 38.950000 156.382240 -31.255800 -111.724638 -0.556362 5.687324 14.286481 -34.420522 40.088391 -19.936200 -7.125000 0.000000 0.000000 -65.404300 53.142500 -19.631900 9.682548 12.919805 4.057503 74.106232 38.371746 42.796276 -153.394109 31.651863 -112.011922 2.719380 -0.910820 27.030738 29.198784 13.216882 6.418400 7.125000 0.000000 0.000000 34.111900 -15.829600 29.384700 
-0.315962 16.140533 -2.240952 -12.553852 -9.223017 6.352027 3.190825 3.997948 2.597097 -0.254664 -12.460884 -34.470919 9.547691 17.666411 58.801614 1.997889 -2.693231 -20.651044 1.473700 -7.671100 -21.719400 -5.699468 -4.519488 3.257029 36.391577 17.361345 -28.753405 -7.444888 -14.046670 49.904091 -2.216342 9.968441 -18.188762 -0.924200 6.124800 -17.146900 -4.837794 0.181360 17.810094 -9.815582 0.262113 22.507541 0.401746 -0.483178 -2.001256 -15.341773 -12.298584 -7.048453 19.888235 -13.057775 -3.924115 10.380100 -6.579300 4.385300 -10.214474 -12.208351 4.474859 -83.776837 -43.939812 39.034283 156.364841 -31.405292 -111.700432 -0.342861 5.613516 14.118887 -32.636763 40.415199 -18.996200 -7.125000 0.000000 0.000000 -64.657200 53.631200 -20.134300 9.811927 12.907022 3.980836 74.556506 37.380303 43.243340 -153.634586 31.624246 -112.078051 2.739600 -0.988168 27.166693 30.022552 12.964628 6.546000 7.125000 0.000000 0.000000 34.518300 -15.856600 29.914200 
-0.328732 16.167808 -2.240543 -12.391023 -8.863474 6.498237 3.181801 3.979022 2.588469 -0.342134 -12.544961 -34.561933 9.411677 17.582781 58.360743 1.972679 -2.828099 -20.270251 1.436000 -7.576600 -21.435300 -5.675780 -4.528734 3.258700 36.223218 17.234884 -28.854925 -7.353700 -13.985523 49.577445 -2.197537 9.825640 -18.123993 -0.931300 6.147500 -17.213000 -5.108492 0.250682 17.499285 -9.398648 0.250673 22.155436 0.791062 -0.431399 -2.517445 -16.237348 -12.008247 -4.972914 20.060899 -12.646484 -4.223037 10.693500 -6.513500 3.920700 -10.353795 -12.080084 4.263537 -83.877338 -42.486585 39.161802 156.547684 -31.531117 -111.698567 -0.001474 5.579629 14.019496 -30.061775 41.464962 -17.861600 -7.125000 0.000000 0.000000 -64.116000 54.642400 -21.675000 9.972698 12.893419 3.874545 74.756577 36.105292 43.845879 -153.837894 31.612853 -112.145760 2.714311 -1.073904 27.172029 30.675448 12.358712 6.465200 7.125000 0.000000 0.000000 34.936000 -16.199700 30.151800 
-0.338436 16.202643 -2.238909 -12.129760 -8.304237 6.528363 3.180863 3.953955 2.582707 -0.599346 -12.814191 -34.495639 9.249035 17.452678 57.829567 1.946927 -2.928192 -19.909475 1.419800 -7.535400 -21.311400 -5.612420 -4.560085 3.271719 35.897560 16.959217 -28.889225 -7.250137 -13.911101 49.200068 -2.177020 9.622533 -18.078260 -0.922300 6.118400 -17.128300 -5.734460 0.372754 16.903881 -8.580562 0.292946 22.587567 1.384370 -0.384291 -1.921520 -16.801195 -11.954862 -4.678356 20.112474 -12.516318 -4.573926 10.833000 -6.473200 3.757300 -10.344950 -12.068058 4.282387 -83.919654 -42.872394 39.289345 156.491471 -31.604139 -111.627002 0.250852 5.535275 13.980193 -28.279454 42.082706 -17.038200 -7.125000 0.000000 0.000000 -63.624800 55.291000 -22.523100 9.865048 12.921283 3.896091 74.395655 36.537337 44.165901 -153.753625 31.568569 -112.153214 2.573764 -1.158390 27.104481 30.487533 11.165818 5.892600 7.125000 0.000000 0.000000 35.154000 -17.190900 29.439100 
-0.346711 16.235945 -2.241054 -11.897711 -7.753720 6.793436 3.196105 3.915124 2.562105 -0.796801 -13.013613 -34.693948 9.056399 17.324499 57.216672 1.890498 -2.903119 -19.469111 1.462900 -7.644000 -21.638000 -5.551230 -4.584034 3.301709 35.541105 16.926898 -29.160002 -7.129837 -13.841814 48.780898 -2.132646 9.390321 -17.888600 -0.882600 5.989000 -16.752600 -6.227628 0.438361 16.390707 -7.706392 0.281952 23.158180 1.942496 -0.372280 -1.046660 -17.298850 -12.075496 -5.903331 20.036923 -12.619224 -4.555247 10.849700 -6.457700 4.018400 -10.249657 -12.167918 4.452478 -83.901848 -44.343368 38.888071 156.281340 -31.617325 -111.548715 0.279603 5.486422 14.303584 -28.343211 41.676871 -16.947300 -7.125000 0.000000 0.000000 -63.255300 55.062400 -21.898200 9.645709 12.932006 3.976845 73.738291 37.857087 44.526458 -153.560998 31.464959 -112.148540 2.395537 -1.242217 26.968002 29.989477 9.780670 5.169000 7.125000 0.000000 0.000000 35.297800 -18.393900 28.375700 
-0.351716 16.273333 -2.244323 -11.629481 -7.261082 7.147037 3.200420 3.877683 2.540830 -1.024432 -13.148580 -34.955951 8.837136 17.185516 56.513873 1.838450 -2.959398 -18.947559 1.473300 -7.669900 -21.715700 -5.501945 -4.594537 3.325782 35.121947 17.019016 -29.462144 -6.989277 -13.760454 48.296562 -2.075408 9.029203 -17.685224 -0.886700 6.002500 -16.791600 -6.402952 0.423812 15.991409 -7.046298 0.202313 23.363398 2.310921 -0.376523 -0.668808 -18.129849 -12.071354 -6.336521 20.101298 -12.571601 -4.513459 11.016700 -6.419100 4.161000 -10.201070 -12.222723 4.516483 -83.968489 -45.024220 38.172549 156.098480 -31.684879 -111.519675 0.148969 5.412246 15.076622 -29.586502 40.242764 -17.150400 -7.125000 0.000000 0.000000 -62.587600 54.079500 -19.771000 9.539461 12.910936 4.011486 73.265291 38.580043 45.048319 -153.468923 31.382577 -112.150502 2.283894 -1.332973 26.954811 29.974706 8.769531 4.728400 7.125000 0.000000 0.000000 35.553800 -19.188000 27.861300 
